# xmcd
#
# Track frame offsets:
#	150
#	16779
#	30118
#	59019
#	76522
#	94620
#	115006
#	139299
#	161546
#	182288
#	197797
#
# Disc length: 2939 seconds
# Revision: 0
# Processed by: cddbd v1.5.2PL0 Copyright (c) Steve Scherf et al.
# Submitted via: dBpowerAMP V12.0
#
DISCID=770b790b
DTITLE=Isaiah B Brunt - Nursery Rhyme Blues
DYEAR=2013
DGENRE=Blues
TTITLE0=Just a Beautiful Thing
TTITLE1=Beale Street
TTITLE2=Nursery Rhyme Blues
TTITLE3=Full Moon Breaking
TTITLE4=Marilyn Monroe
TTITLE5=Before You Lay me Down
TTITLE6=Vinegar Hill
TTITLE7=That Place on The Road
TTITLE8=Time Will Come
TTITLE9=Humming Blues
TTITLE10=Over Time
EXTD=
EXTT0=
EXTT1=
EXTT2=
EXTT3=
EXTT4=
EXTT5=
EXTT6=
EXTT7=
EXTT8=
EXTT9=
EXTT10=
PLAYORDER=
